<?xml version="1.0" encoding="utf-8"?>
<!-- Generator: Adobe Illustrator 19.1.0, SVG Export Plug-In . SVG Version: 6.00 Build 0)  -->
<svg version="1.1" id="XMLID_2_" xmlns="http://www.w3.org/2000/svg" xmlns:xlink="http://www.w3.org/1999/xlink" x="0px" y="0px"
	 viewBox="0 0 200 97.9033" enable-background="new 0 0 200 97.9033" xml:space="preserve">
<g id="RT_x5F_logo">
	<path d="M13.4131,53.7529c-0.5591,1.2427-0.1533,2.5996,0.9072,3.0386c1.0596,0.4399,2.3687-0.2104,2.9268-1.4521
		c0.5547-1.2349,0.1499-2.5967-0.9092-3.0386C15.2783,51.8643,13.9697,52.5137,13.4131,53.7529"/>
	<path fill="#89C854" d="M37.1992,51.625c1.1924-0.2681,2.4248,0.7271,2.7598,2.2202c0.335,1.4942-0.355,2.9277-1.5479,3.1895
		c-1.1894,0.268-2.4238-0.7256-2.7641-2.2212C35.3106,53.3193,36.0068,51.8882,37.1992,51.625 M33.7432,82.9111
		c1.1562-4.0068,2.0859-6.6494,2.0771-11.2675c-0.0117-4.6128,0.0088-6.1578,0.2881-7.9522l0.2813-1.7935
		c0,0-1.42-0.2578-3.7979,2.8702c-1.8848,2.4809-1.6094,5.4008-1.417,6.5048l1.5518,1.8863
		c0.5302-0.3457,0.6045-0.3877,0.8115-0.7525c0.417-0.729,0.0229-1.5083,0.0229-1.5083l0.2691,0.0723
		c0,0,0.793,1.4863,0.1855,2.4297c-0.4209,0.6494-1.4736,1.1973-2.1377,1.6846l0.2911,0.3208l-0.5811,0.5161l-1.0947-1.2344
		l0.5849-0.5146l0.253,0.289c0-0.0019,0.5752-0.5288,0.8559-0.8867l-5.4917-5.6172l1.0196-0.8921l2.3369,2.8399
		c-0.2686-2.2867-0.1709-6.8423,4.0381-10.0801c4.2451-3.2622,5.7695-1.7642,12.6074-8.3169c2.29-2.1973,3.8584-3.7461,4.375-4.2583
		c-7.6807-6.9038-20.169-18.1392-21.7676-19.5742c-0.6748,0.5551-3.1611,2.5991-6.3984,5.2612l4.0351,56.0908l3.3819,0.7984
		l-0.0069-0.0039C30.3164,89.8228,32.5977,86.9233,33.7432,82.9111"/>
	<path fill="#89C854" d="M55.1572,50.9268c-0.7988-0.7193-1.8164-1.6353-2.9746-2.6778c-1.5205,1.3965-7.0722,6.6856-8.8857,10.9473
		c-1.1602,2.7334-1.8897,8.9297,0.5478,10.0102c4.8965,2.1617,5.5977,3.9664,6.087,6.4878
		c0.8671,4.4722-3.5889,12.5098-3.5889,12.5098l-1.2715-0.0254c0,0,3.9805-10.02,1.3701-13.1914
		c-1.8721-2.2617-5.1377-2.2017-6.5884,0.4273c-1.3833,2.5297-1.9829,4.1552-3.8286,7.6669
		c-2.4746,4.7212-3.834,6.5347-4.2802,7.0777l19.8339,4.6767L55.1572,50.9268z"/>
	<path d="M21.4522,70.7378c0.542-1.5376,1.708-6.1978-2.3116-10.0435c-3.5615-3.414-5.705-2.3691-10.331-9.7851
		c-1.1524-1.8457-2.1206-3.3218-2.7022-4.1968c4.8799-3.9922,11.8594-9.7104,16.7989-13.7739l-0.2793-4.9214L0,46.4233l0.374,4.9864
		c0,0,1.8633-1.5279,4.6309-3.791c1.25,1.9541,4.0991,6.6591,4.9756,10.2719c0.6235,2.5738,0.7353,6.292-1.0303,8.6919
		c-3.416,4.6441-4.5615,9.8657-4.6973,11.3696c-0.498,5.4771,1.3477,7.9107,1.3477,7.9107l0.8926-0.0234
		c0,0-0.7774-3.8951-0.4356-6.2935c0.6514-4.5977,3.4658-8.4688,5.0782-8.0308c1.7343,0.4644,1.1894,2.4805,2.7119,8.2515
		c1.5254,5.7656,2.4873,6.3696,2.4873,6.3696l1.021,0.0176c0,0-0.5523-1.5122-1.3277-5.5527
		c-0.6982-3.6426-0.831-7.6216-0.0576-11.6265c0.7686-4.0098,0.6045-3.6767,0.6397-5.2842l0.0366-1.6015
		c0,0,1.4487,0.0776,3.2778,3.1255c1.8281,3.0459,0.1192,6.5522,0.1192,6.5522l0.0449-0.019l-0.5679,0.4292l-0.9976-1.0118
		l-0.6416,0.4175l2.8282,3.0122l0.3828-0.4648l-1.0879-1.3384L22.792,71.04l0.0498-0.7265l-0.5146-0.1885L21.4522,70.7378z"/>
	<path d="M17.686,72.04c-0.2973,0.2891-0.9126,0.9825-1.1811,1.3907c-0.8623,1.3198-0.6929,2.6401-0.6929,2.6401l0.5708-0.9556
		l-0.1201,1.2867l0.7285-1.1001l-0.2383,1.2695l0.5957-0.7085l-0.1474,0.8862l0.4639-0.6928l0.0781,1.0629
		c0,0,0.6679-1.0742,1.7451-2.0317c0.2021-0.1763,0.2978-0.2671,0.4248-0.3618L17.686,72.04z"/>
	<path d="M47.7686,23.7393l-3.9619-4.2447l-4.7061,4.2447l2.0937-7.0718l-4.7851-5.6377l5.8613,2.0776l1.9112-7.0088l1.372,7.6231
		l4.3115,1.2754l-3.3671,2.6704L47.7686,23.7393z M20.793,3.8042l1.834,24.2129l5.4726-4.4976l1.3252-1.0888l26.1709,23.5376
		L60.0801,0L20.793,3.8042z"/>
	<path fill="#89C854" d="M67.1817,41.6187H60.167c0.5586,0.2749,1.0098,0.7534,1.0098,1.538v20.1626
		c0,0.752-0.4512,1.2305-1.0098,1.5362h5.5596c-0.5615-0.3057-1.044-0.7842-1.044-1.5362v-9.3984h2.1621
		c1.9405,0,2.7227,1.4727,3.6924,2.8379c1.3057,1.9141,2.6465,3.998,4.5508,6.5605c0.5581,0.7193,1.6035,1.605,3.0591,1.605
		l3.8042-0.0688c0,0-1.6045-0.543-2.3858-1.3643c-1.6425-1.6094-5.5966-7.8613-5.5966-7.8613
		c-0.5586-0.752-1.6036-2.1865-3.6162-2.5601c2.3125-0.1719,5.8925-2.0522,5.8925-5.7446
		C76.2451,45.1729,74.6397,41.6187,67.1817,41.6187 M72.4766,47.4272c0,3.5904-2.7959,5.1265-5.6319,5.1265
		c-0.9677,0-2.1621-0.0664-2.1621-0.0664v-9.3984c0,0,1.1201-0.1045,2.7984-0.1045C71.4326,42.9844,72.4766,45.8218,72.4766,47.4272
		"/>
	<path fill="#89C854" d="M87.7691,63.1851c-3.9537,0-5.9673-3.0074-5.9673-6.4634v-0.9551h12.0859
		c0-5.0566-3.8418-7.0737-7.0156-7.0737c-5.7041,0-8.5772,4.5815-8.5772,8.3042c0,4.0688,3.2061,8.1665,8.4688,8.1665
		c3.9912,0,6.8603-2.7329,6.9726-5.5347C93.0274,61.2354,90.3799,63.1851,87.7691,63.1851 M90.4561,54.5034h-8.5059
		c0.3008-2.3579,1.7559-4.5786,4.4785-4.5786C88.4776,49.9248,90.4561,51.1851,90.4561,54.5034"/>
	<path fill="#89C854" d="M94.4092,42.2002c0.5947,0.1719,1.3066,0.3047,1.3066,1.3657v19.6192
		c0.4434,0.2041,3.6162,1.9799,6.6026,1.9799c5.9648,0,8.9482-4.4062,8.9482-8.5776c0-3.5552-2.459-7.8945-7.124-7.8945
		c-2.2754,0-3.6162,0.7182-5.1074,1.9487v-9.3281L94.4092,42.2002z M107.7637,56.7231c0,5.4004-3.0957,7.106-4.9258,7.106
		c-2.835,0-3.8027-1.6016-3.8027-1.6016v-10.288c1.0039-1.125,2.498-1.4009,3.6884-1.4009
		C104.8526,50.5386,107.7637,51.8369,107.7637,56.7231"/>
	<path fill="#89C854" d="M127.2676,48.6929v13.4306c0,1.0264,0.3354,1.7774,1.4951,1.9478l-3.249,1.0923
		c-0.8945-0.4785-1.3418-0.8521-1.3418-2.3907c-1.1172,1.128-2.7949,2.3907-5.4453,2.3907c-2.1983,0-5.6699-1.3321-5.6699-6.4224
		v-7.8594c0-1.0625-0.7071-1.1963-1.2657-1.3681l4.5117-0.8208v10.0483c0,2.9043,1.7159,4.4087,3.8423,4.4087
		c1.8296,0,2.8726-0.7881,3.9527-1.7441v-10.524c0-1.0625-0.709-1.1963-1.3047-1.3681L127.2676,48.6929z"/>
	<path fill="#89C854" d="M134.0186,48.6929v14.8672c0,0.7514,0.3711,0.9897,0.9707,1.2954h-5.1866
		c0.5625-0.3057,0.9707-0.544,0.9707-1.2954V50.8818c0-1.0625-0.7094-1.1963-1.3037-1.3681L134.0186,48.6929z M132.377,41.8594
		c0.9687,0,1.831,0.7505,1.831,1.6416c0,0.9551-0.8623,1.7407-1.831,1.7407c-1.0059,0-1.8643-0.7856-1.8643-1.7407
		C130.5127,42.6099,131.3711,41.8594,132.377,41.8594"/>
	<path fill="#89C854" d="M140.8076,41.3115v22.2486c0,0.7514,0.3701,0.9897,0.9688,1.2954h-5.1846
		c0.5625-0.3057,0.9712-0.544,0.9712-1.2954V43.501c0-1.0586-0.709-1.1641-1.3813-1.3672L140.8076,41.3115z"/>
	<path fill="#89C854" d="M153.563,42.1338c0.5981,0.2007,1.3091,0.3061,1.3091,1.3647v6.3208
		c-0.8623-0.6464-1.9053-1.1279-3.5108-1.1279c-5.4072,0-8.5781,4.2734-8.5781,8.0317c0,4.2066,2.2002,8.4405,7.3477,8.4405
		c2.0132,0,3.9541-1.0923,4.8481-1.8443l0.0747,1.8443l4.4043-1.125c-0.5596-0.2095-1.3076-0.3111-1.3076-1.3672V41.3115
		L153.563,42.1338z M146.2168,56.5874c0-3.7935,2.1983-6.5298,5.669-6.5298c1.5283,0,2.458,0.8228,2.9863,1.6113v10.4546
		c-0.6011,0.479-1.9053,1.2657-3.2481,1.2657C149.8701,63.3892,146.2168,62.0562,146.2168,56.5874"/>
	<path fill="#89C854" d="M164.9014,48.6929v14.8672c0,0.7514,0.374,0.9897,0.9707,1.2954h-5.1861
		c0.5582-0.3057,0.9712-0.544,0.9712-1.2954V50.8818c0-1.0625-0.7099-1.1963-1.3076-1.3681L164.9014,48.6929z M163.2617,41.8594
		c0.9663,0,1.8262,0.7505,1.8262,1.6416c0,0.9551-0.8599,1.7407-1.8262,1.7407c-1.0097,0-1.8667-0.7856-1.8667-1.7407
		C161.395,42.6099,162.252,41.8594,163.2617,41.8594"/>
	<path fill="#89C854" d="M182.5801,53.4434v10.1167c0,0.7524,0.4092,0.9897,0.9687,1.2954h-5.1054
		c0.6318-0.3057,0.9677-0.543,0.9677-1.2954v-8.8863c0-1.8799-0.6709-3.9638-3.955-3.9638c-1.5645,0-3.0591,0.9589-3.7627,1.7773
		v11.0728c0,0.7524,0.3686,0.9897,0.9677,1.2954h-5.1474c0.5967-0.3057,0.9297-0.543,0.9297-1.2954V50.8804
		c0-1.0586-0.5938-1.229-1.2315-1.4336l4.4815-0.7554v2.4273c0.8164-0.8208,2.9795-2.4273,5.3662-2.4273
		C179.8574,48.6914,182.5801,50.4019,182.5801,53.4434"/>
	<path fill="#89C854" d="M195.4121,54.7412c0,3.3501-1.8281,4.7168-3.9922,4.7168c-1.5293,0-3.6172-1.0937-3.6172-4.9883
		c0-3.1782,1.4913-4.6504,3.8414-4.6504C193.6572,49.8193,195.4121,51.2593,195.4121,54.7412 M199.8867,66.5659
		c0-2.9048-2.9834-3.6216-5.4824-3.6216l-3.2461-0.0351c-2.3105,0-2.9834-0.3745-2.9834-0.9571c0-0.8862,1.042-1.332,2.1631-1.4335
		c0.373,0.0673,0.8203,0.1015,1.3062,0.1015c4.2133,0,7.0141-2.7344,7.0141-5.9472c0-1.5352-0.748-3.1768-2.166-4.337H200v-1.2988
		h-5.6328c-1.043-0.312-1.9395-0.3442-2.9863-0.3442c-3.5782,0-6.7491,2.6675-6.7491,5.98c0,2.7006,1.6016,4.58,3.9561,5.5048
		c-1.4209,0.648-3.1348,1.7066-3.1348,3.0728c0,1.5395,1.8272,1.9497,1.8272,1.9497c-1.3047,0.5474-3.4297,1.436-3.4297,3.6553
		c0,2.7705,3.5068,3.8623,6.8242,3.8623C196.0449,72.7178,199.8867,69.8491,199.8867,66.5659 M197.4609,67.73
		c0,2.0493-2.4599,3.5527-5.6289,3.5527c-3.6572,0-5.6318-1.5034-5.6318-3.1128c0-1.1553,1.1572-2.2519,2.6475-2.7666
		c0.7822,0.1016,2.3877,0.1719,4.9209,0.2403C194.5557,65.6436,197.4609,65.6787,197.4609,67.73"/>
	<path d="M78.2734,68.4473c0,0-3.3564-0.2344-6.0791-0.2344v20.2978c0,0.7544,0.3741,1.232,0.9698,1.5391h-5.52
		c0.6333-0.3071,0.9692-0.7847,0.9692-1.5391V68.2129c-2.7979,0-6.1172,0.2344-6.1172,0.2344c-0.8935,0-1.6025,0.789-1.9375,1.3335
		v-2.9712h19.6191l0.0352,2.9712C79.8408,69.2363,79.2442,68.5176,78.2734,68.4473"/>
	<path d="M74.8809,82.1499c0,3.623,2.2754,8.2007,8.1689,8.2007c4.961,0.0351,8.2061-4.1694,8.2061-8.2007
		c0.0371-4.0684-2.501-8.2407-8.1328-8.2681C77.939,73.8818,74.8809,78.0815,74.8809,82.1499 M87.8613,81.9121
		c0.1495,3.792-1.3066,7.0034-4.5507,7.1084c-3.0938,0.1333-4.9239-3.0117-5.0362-6.7002c-0.1474-3.624,1.2324-7.0771,4.5137-7.2114
		C86.1084,75.0059,87.6768,78.4561,87.8613,81.9121"/>
	<path d="M103.2266,79.9268c0,3.351-1.8252,4.7148-3.9893,4.7148c-1.5293,0-3.6181-1.0918-3.6181-4.9863
		c0-3.1778,1.4931-4.6494,3.8417-4.6494C101.4766,75.0059,103.2266,76.4424,103.2266,79.9268 M107.7051,91.7505
		c0-2.9053-2.9844-3.6206-5.4863-3.6206l-3.2432-0.0352c-2.3105,0-2.9844-0.3745-2.9844-0.957c0-0.8887,1.0469-1.3311,2.1641-1.4336
		c0.373,0.0688,0.8203,0.1025,1.3056,0.1025c4.2149,0,7.0137-2.7368,7.0137-5.9472c0-1.5376-0.7466-3.1778-2.1636-4.3408h3.503
		v-1.2974h-5.6304c-1.043-0.312-1.9394-0.3394-2.9824-0.3394c-3.582,0-6.752,2.6607-6.752,5.9776
		c0,2.7007,1.6016,4.5805,3.9541,5.5039c-1.416,0.6455-3.1328,1.708-3.1328,3.0732c0,1.5366,1.8252,1.9492,1.8252,1.9492
		c-1.3008,0.545-3.4267,1.4336-3.4267,3.6563c0,2.7695,3.5029,3.8613,6.8232,3.8613
		C103.8623,97.9033,107.7051,95.0347,107.7051,91.7505 M105.2813,92.9131c0,2.0517-2.4639,3.5552-5.6343,3.5552
		c-3.6558,0-5.6304-1.5035-5.6304-3.1099c0-1.1621,1.1553-2.2573,2.6485-2.7695c0.7792,0.1054,2.3867,0.1718,4.9228,0.2417
		C102.3692,90.8306,105.2813,90.8643,105.2813,92.9131"/>
	<path d="M116.9912,88.3691c-3.9521,0-5.9702-3.0058-5.9702-6.457v-0.96h12.0874c0-5.0566-3.8408-7.0717-7.0127-7.0717
		c-5.706,0-8.5791,4.5766-8.5791,8.2998c0,4.0678,3.207,8.1704,8.4678,8.1704c3.9912,0,6.8633-2.7319,6.9765-5.5371
		C122.252,86.4209,119.5996,88.3691,116.9912,88.3691 M119.6738,79.6885h-8.499c0.2959-2.3594,1.751-4.5796,4.4746-4.5796
		C117.7002,75.1089,119.6738,76.3721,119.6738,79.6885"/>
	<path d="M128.103,71.1436v3.1445h5.1499v1.435h-5.2207v9.6402c0,3.2119,2.2388,3.5522,3.3907,3.5522
		c1.4922,0,1.8681-0.479,2.3891-0.8872c-0.0366,0.8872-1.602,2.3223-3.7671,2.3223c-2.9829,0-5.1816-1.6738-5.1816-4.9527v-9.6748
		h-1.6065L128.103,71.1436z"/>
	<path d="M149.0684,78.6299v10.1133c0,0.7529,0.3359,0.9907,0.9726,1.3007h-5.1543c0.6006-0.31,1.0093-0.5478,1.0093-1.3007v-8.9864
		c0-2.0175-0.9331-3.8623-3.9927-3.8623c-1.6753,0-3.3545,0.8882-4.0644,1.7769v11.0718c0,0.7529,0.374,0.9907,1.0469,1.3007
		h-5.2588c0.6347-0.31,0.9716-0.5478,0.9716-1.3007V68.6851c0-0.9947-0.7109-1.1646-1.3076-1.3716l4.5479-0.8174v9.8081
		c0.8232-0.6494,3.1709-2.4224,5.6338-2.4224C146.3838,73.8818,149.0684,75.4858,149.0684,78.6299"/>
	<path d="M160.3711,88.3691c-3.9551,0-5.9678-3.0058-5.9678-6.457v-0.96h12.084c0-5.0566-3.8413-7.0717-7.0097-7.0717
		c-5.711,0-8.5835,4.5766-8.5835,8.2998c0,4.0678,3.2075,8.1704,8.4653,8.1704c3.9936,0,6.8672-2.7319,6.9785-5.5371
		C165.6289,86.4209,162.978,88.3691,160.3711,88.3691 M163.0527,79.6885h-8.5009c0.2998-2.3594,1.7529-4.5796,4.4736-4.5796
		C161.0772,75.1089,163.0527,76.3721,163.0527,79.6885"/>
	<path d="M171.708,73.8804v3.0063c0.7862-1.2319,2.7227-3.0063,4.0293-3.0063c0.8926,0,0.9678,0.0991,1.4151,0.27v3.2139
		c-0.5567-0.6504-1.2305-1.0625-2.1993-1.0625c-1.4189,0-2.5361,1.0297-3.2451,1.8496v10.5918c0,0.7539,0.4112,0.9907,0.9697,1.3007
		h-5.1835c0.5957-0.31,0.9687-0.5468,0.9687-1.3007V76.0649c0-1.059-0.71-1.1967-1.3437-1.3686L171.708,73.8804z"/>
	<path d="M177.4863,88.3345c0.2588,0,0.4473-0.0249,0.5664-0.0777c0.1192-0.0503,0.212-0.1206,0.2735-0.2085
		c0.0625-0.0922,0.0947-0.1967,0.0947-0.312c0-0.1762-0.0615-0.3266-0.1865-0.4482c-0.1231-0.1167-0.2793-0.1777-0.4717-0.1777
		c-0.082,0-0.1748,0.0175-0.2764,0.0532V88.3345z M176.708,86.9668h1.2686c0.3154,0,0.5556,0.0718,0.7217,0.2144
		c0.1679,0.144,0.2509,0.3159,0.2509,0.519c0,0.1665-0.0566,0.312-0.1728,0.436c-0.1104,0.128-0.2974,0.2256-0.5547,0.292
		l0.6836,0.9741c0.082,0.1148,0.1557,0.1949,0.2226,0.2378c0.043,0.0249,0.0997,0.0425,0.1739,0.0484v0.1094h-0.6035l-0.96-1.3257
		h-0.252v1.0112c0.0137,0.0713,0.045,0.125,0.0957,0.1567c0.0498,0.0328,0.146,0.0484,0.292,0.0484v0.1094h-1.205v-0.1094
		c0.1054,0,0.1816-0.0117,0.2246-0.0347c0.0424-0.0278,0.0742-0.064,0.0927-0.1138c0.0166-0.0327,0.0245-0.1342,0.0245-0.3007
		v-1.7129c0-0.1621-0.002-0.2559-0.0088-0.2837c-0.0157-0.0503-0.043-0.0889-0.084-0.1177c-0.041-0.0264-0.1113-0.0391-0.21-0.0391
		V86.9668z M177.9971,86.2729c-0.3555,0-0.7061,0.0914-1.044,0.273c-0.3379,0.1841-0.6045,0.4478-0.7939,0.7856
		c-0.1875,0.3399-0.2842,0.6949-0.2842,1.0621c0,0.3667,0.0967,0.7187,0.2793,1.0546c0.1885,0.3384,0.4483,0.6001,0.7881,0.7881
		c0.3369,0.187,0.6855,0.2823,1.0547,0.2823c0.3662,0,0.7197-0.0953,1.0556-0.2823c0.336-0.188,0.5957-0.4497,0.7832-0.7881
		c0.1924-0.3359,0.2833-0.6879,0.2833-1.0546c0-0.3672-0.0972-0.7222-0.2842-1.0621c-0.1924-0.3378-0.4551-0.6015-0.793-0.7856
		C178.7022,86.3643,178.353,86.2729,177.9971,86.2729 M177.9971,86.0708c0.3906,0,0.7705,0.1006,1.1426,0.3008
		c0.3701,0.1997,0.663,0.4868,0.8681,0.8584c0.208,0.3711,0.3125,0.7597,0.3125,1.1636c0,0.4033-0.1025,0.789-0.3066,1.1586
		c-0.2051,0.3672-0.4927,0.6543-0.8604,0.8575c-0.3701,0.2065-0.7573,0.3066-1.1562,0.3066c-0.4043,0-0.7891-0.1001-1.1572-0.3066
		c-0.3663-0.2032-0.6543-0.4903-0.8575-0.8575c-0.206-0.3696-0.3095-0.7553-0.3095-1.1586c0-0.4039,0.1035-0.7925,0.3134-1.1636
		c0.2051-0.3716,0.5-0.6587,0.8697-0.8584C177.2246,86.1714,177.6074,86.0708,177.9971,86.0708"/>
	<path fill="none" stroke="#000000" stroke-width="0.076" d="M177.4863,88.3345c0.2588,0,0.4473-0.0249,0.5664-0.0777
		c0.1192-0.0503,0.212-0.1206,0.2735-0.2085c0.0625-0.0922,0.0947-0.1967,0.0947-0.312c0-0.1762-0.0615-0.3266-0.1865-0.4482
		c-0.1231-0.1167-0.2793-0.1777-0.4717-0.1777c-0.082,0-0.1748,0.0175-0.2764,0.0532V88.3345z M176.708,86.9668h1.2686
		c0.3154,0,0.5556,0.0718,0.7217,0.2144c0.1679,0.144,0.2509,0.3159,0.2509,0.519c0,0.1665-0.0566,0.312-0.1728,0.436
		c-0.1104,0.128-0.2974,0.2256-0.5547,0.292l0.6836,0.9741c0.082,0.1148,0.1557,0.1949,0.2226,0.2378
		c0.043,0.0249,0.0997,0.0425,0.1739,0.0484v0.1094h-0.6035l-0.96-1.3257h-0.252v1.0112c0.0137,0.0713,0.045,0.125,0.0957,0.1567
		c0.0498,0.0328,0.146,0.0484,0.292,0.0484v0.1094h-1.205v-0.1094c0.1054,0,0.1816-0.0117,0.2246-0.0347
		c0.0424-0.0278,0.0742-0.064,0.0927-0.1138c0.0166-0.0327,0.0245-0.1342,0.0245-0.3007v-1.7129
		c0-0.1621-0.002-0.2559-0.0088-0.2837c-0.0157-0.0503-0.043-0.0889-0.084-0.1177c-0.041-0.0264-0.1113-0.0391-0.21-0.0391V86.9668z
		 M177.9971,86.2729c-0.3555,0-0.7061,0.0914-1.044,0.273c-0.3379,0.1841-0.6045,0.4478-0.7939,0.7856
		c-0.1875,0.3399-0.2842,0.6949-0.2842,1.0621c0,0.3667,0.0967,0.7187,0.2793,1.0546c0.1885,0.3384,0.4483,0.6001,0.7881,0.7881
		c0.3369,0.187,0.6855,0.2823,1.0547,0.2823c0.3662,0,0.7197-0.0953,1.0556-0.2823c0.336-0.188,0.5957-0.4497,0.7832-0.7881
		c0.1924-0.3359,0.2833-0.6879,0.2833-1.0546c0-0.3672-0.0972-0.7222-0.2842-1.0621c-0.1924-0.3378-0.4551-0.6015-0.793-0.7856
		C178.7022,86.3643,178.353,86.2729,177.9971,86.2729z M177.9971,86.0708c0.3906,0,0.7705,0.1006,1.1426,0.3008
		c0.3701,0.1997,0.663,0.4868,0.8681,0.8584c0.208,0.3711,0.3125,0.7597,0.3125,1.1636c0,0.4033-0.1025,0.789-0.3066,1.1586
		c-0.2051,0.3672-0.4927,0.6543-0.8604,0.8575c-0.3701,0.2065-0.7573,0.3066-1.1562,0.3066c-0.4043,0-0.7891-0.1001-1.1572-0.3066
		c-0.3663-0.2032-0.6543-0.4903-0.8575-0.8575c-0.206-0.3696-0.3095-0.7553-0.3095-1.1586c0-0.4039,0.1035-0.7925,0.3134-1.1636
		c0.2051-0.3716,0.5-0.6587,0.8697-0.8584C177.2246,86.1714,177.6074,86.0708,177.9971,86.0708z"/>
</g>
</svg>
